<mxfile host="app.diagrams.net" modified="2024-07-11T13:42:26.715Z" agent="Mozilla/5.0 (Windows NT 10.0; Win64; x64) AppleWebKit/537.36 (KHTML, like Gecko) Chrome/126.0.0.0 Safari/537.36 Edg/126.0.0.0" etag="dYApkvvCTmsT2YLV9fPr" version="24.6.4" type="device">
  <diagram name="Page-1" id="1eJdPKFsjIU6GB55MpRo">
    <mxGraphModel dx="986" dy="459" grid="1" gridSize="10" guides="1" tooltips="1" connect="1" arrows="1" fold="1" page="1" pageScale="1" pageWidth="850" pageHeight="1100" math="0" shadow="0">
      <root>
        <mxCell id="0" />
        <mxCell id="1" parent="0" />
      </root>
    </mxGraphModel>
  </diagram>
</mxfile>
